<?xml version="1.0" encoding="UTF-8"?>
<svg xmlns="http://www.w3.org/2000/svg" xmlns:xlink="http://www.w3.org/1999/xlink" width="600pt" height="599.999999pt" viewBox="0 0 600 599.999999" version="1.2">
<defs>
<clipPath id="clip1">
  <path d="M 48 369 L 180 369 L 180 506.25 L 48 506.25 Z M 48 369 "/>
</clipPath>
</defs>
<g id="surface1">
<path style=" stroke:none;fill-rule:evenodd;fill:rgb(93.728638%,74.508667%,63.919067%);fill-opacity:1;" d="M 374.199219 346.585938 C 375.414062 346.960938 376.78125 348.179688 378.425781 348.875 C 379.128906 349.171875 379.46875 349.90625 379.992188 350.429688 C 381.832031 352.265625 383.65625 354.183594 384.40625 356.730469 C 385.070312 358.976562 385.574219 361.273438 385.929688 363.613281 C 386.699219 368.667969 385.847656 373.652344 385.484375 378.65625 C 385.324219 380.878906 385.195312 383.109375 385.050781 385.332031 C 385.035156 385.539062 385.058594 385.75 385.023438 385.953125 C 384.703125 387.808594 385.125 388.269531 386.824219 387.507812 C 390.105469 386.023438 393.578125 385.191406 396.992188 384.132812 C 401.78125 382.648438 406.566406 382.109375 411.46875 383.109375 C 415.253906 383.878906 418.820312 385.253906 421.957031 387.585938 C 422.316406 387.851562 422.449219 388.242188 422.71875 388.546875 C 425.617188 391.824219 426.707031 395.898438 427.929688 399.957031 C 428.84375 402.976562 428.964844 405.976562 428.703125 409.070312 C 428.417969 412.410156 427.835938 415.699219 426.496094 418.75 C 425.445312 421.136719 423.933594 423.269531 421.945312 425.105469 C 419.90625 426.980469 417.5 428.121094 415.089844 429.199219 C 412.785156 430.234375 410.386719 431.121094 407.851562 431.621094 C 406.511719 431.890625 405.234375 432.578125 403.890625 432.992188 C 402.402344 433.449219 400.988281 434.136719 399.539062 434.71875 C 398.300781 435.21875 398.253906 435.527344 399.074219 436.523438 C 400.671875 438.46875 402.09375 440.570312 403.140625 442.835938 C 403.765625 444.1875 403.648438 445.84375 404.265625 447.265625 C 406.191406 451.671875 405.609375 456.015625 403.964844 460.351562 C 403.410156 461.8125 403.273438 463.441406 402.402344 464.773438 C 401.289062 466.484375 400.570312 468.390625 399.605469 470.167969 C 399.15625 470.988281 398.375 471.433594 397.523438 471.804688 C 395.335938 472.757812 392.941406 473.21875 390.921875 474.578125 C 389.972656 475.214844 388.925781 475.691406 388.046875 476.476562 C 386.402344 477.957031 384.335938 478.050781 382.253906 477.976562 C 379.886719 477.894531 377.503906 477.941406 375.160156 477.695312 C 373.820312 477.554688 372.523438 477.121094 371.214844 476.542969 C 369.09375 475.601562 367.710938 473.996094 366.292969 472.414062 C 365.242188 471.234375 364.589844 469.710938 363.722656 468.371094 C 362.71875 466.8125 361.5 465.429688 360.007812 464.328125 C 359.460938 463.925781 358.796875 463.871094 358.359375 464.511719 C 356.804688 466.78125 355.226562 469.039062 353.707031 471.328125 C 352.390625 473.304688 350.875 475.214844 348.992188 476.761719 C 348.679688 477.019531 348.285156 477.285156 348.136719 477.636719 C 347.085938 480.171875 344.578125 480.414062 342.476562 481.171875 C 339.945312 482.082031 337.265625 481.945312 334.625 481.636719 C 330.945312 481.203125 327.367188 480.335938 323.882812 479.054688 C 322.175781 478.425781 320.566406 477.652344 318.9375 476.847656 C 316.703125 475.738281 315.738281 473.640625 314.257812 471.9375 C 314.019531 471.660156 313.910156 471.234375 313.625 471.039062 C 312.097656 469.984375 311.375 468.285156 310.484375 466.816406 C 309.660156 465.46875 309.410156 463.707031 309.3125 462.058594 C 309.226562 460.570312 309.199219 459.097656 308.425781 457.746094 C 308.109375 457.183594 308.332031 456.519531 308.238281 455.914062 C 307.835938 453.40625 308.851562 451.214844 309.558594 448.894531 C 310.539062 445.710938 312.640625 443.140625 313.832031 440.09375 C 314.507812 438.34375 314.425781 438.027344 312.597656 437.496094 C 310.34375 436.84375 307.925781 436.472656 305.914062 435.371094 C 303.675781 434.148438 301.269531 433.035156 299.703125 430.703125 C 298.796875 429.351562 298.320312 427.699219 297.160156 426.59375 C 295.097656 424.632812 295.496094 421.859375 294.558594 419.546875 C 294.222656 418.71875 294.75 417.933594 294.789062 417.117188 C 294.859375 415.597656 294.574219 414.082031 294.902344 412.546875 C 295.046875 411.875 294.484375 411.199219 294.550781 410.335938 C 294.667969 408.660156 295.566406 407.390625 296.4375 406.234375 C 297.890625 404.304688 299.183594 402.210938 301.089844 400.628906 C 301.679688 400.140625 302.179688 399.527344 302.554688 398.804688 C 303.09375 397.769531 304.195312 397.300781 305.117188 396.738281 C 306.507812 395.890625 307.917969 395.074219 309.558594 394.652344 C 311.226562 394.222656 312.855469 393.617188 314.351562 392.648438 C 314.972656 392.242188 315.820312 392.140625 316.585938 391.996094 C 319.703125 391.394531 322.824219 390.390625 325.945312 390.367188 C 329.210938 390.34375 332.433594 389.382812 335.71875 390.011719 C 336.703125 390.203125 336.964844 389.742188 336.546875 388.882812 C 335.125 385.96875 334.195312 382.902344 333.636719 379.71875 C 333.425781 378.492188 333.121094 377.300781 332.585938 376.171875 C 332.078125 375.117188 331.988281 373.890625 331.910156 372.820312 C 331.792969 371.21875 331.285156 369.761719 331 368.230469 C 330.792969 367.113281 330.761719 365.917969 330.835938 364.84375 C 331.050781 361.6875 331.082031 358.496094 331.8125 355.386719 C 332.5625 352.203125 334.058594 349.476562 336.636719 347.414062 C 337.695312 346.566406 338.433594 345.207031 339.785156 344.878906 C 342.53125 344.199219 345.109375 342.941406 347.925781 342.507812 C 348.78125 342.378906 349.644531 342.105469 350.492188 342.136719 C 355.042969 342.300781 359.613281 342.019531 364.109375 343.21875 C 367.382812 344.09375 370.617188 345.003906 374.199219 346.585938 Z M 350.476562 404.894531 C 349.667969 406.644531 349.671875 406.640625 348.046875 405.839844 C 347.867188 405.75 347.636719 405.757812 347.460938 405.65625 C 346 404.84375 344.421875 405.347656 342.898438 405.246094 C 342.007812 405.1875 340.578125 406.464844 340.253906 407.335938 C 339.71875 408.785156 340.554688 410.671875 338.84375 411.757812 C 338.714844 411.839844 338.734375 412.238281 338.773438 412.472656 C 338.890625 413.199219 338.960938 413.929688 339.332031 414.613281 C 340.050781 415.9375 339.621094 417.457031 338.382812 418.285156 C 337.246094 419.046875 336.945312 420.210938 337.445312 421.519531 C 337.695312 422.167969 338.394531 422.453125 338.585938 423.117188 C 339.371094 425.800781 341.375 427.566406 343.328125 429.359375 C 344.078125 430.042969 344.433594 430.6875 344.019531 431.734375 C 343.554688 432.902344 344.183594 433.617188 345.460938 433.511719 C 346.078125 433.460938 346.503906 433.695312 347.011719 434.066406 C 348.289062 435 348.570312 436.667969 349.828125 437.617188 C 350.710938 438.285156 351.285156 439.105469 350.949219 440.460938 C 350.683594 441.53125 352.734375 443.660156 353.804688 443.78125 C 354.695312 443.878906 357.285156 442.546875 357.675781 441.734375 C 357.9375 441.191406 358.117188 441.054688 358.765625 441.363281 C 359.667969 441.78125 360.578125 442.390625 361.738281 441.960938 C 362.269531 441.761719 362.535156 441.246094 363.09375 441.140625 C 365.347656 440.722656 366.929688 439.441406 367.992188 437.417969 C 368.46875 436.515625 369.308594 435.757812 369.609375 434.820312 C 370.042969 433.445312 371.410156 431.734375 372.667969 431.667969 C 375.417969 431.523438 377.007812 429.433594 378.421875 427.660156 C 379.429688 426.390625 380.390625 425 381.5625 423.867188 C 382.261719 423.191406 382.472656 422.671875 382.324219 421.746094 C 382.0625 420.171875 382.011719 418.574219 381.796875 416.988281 C 381.691406 416.195312 381.742188 415.367188 381.167969 414.847656 C 380.144531 413.921875 379.046875 413.054688 377.867188 412.347656 C 376.371094 411.445312 374.554688 411.386719 372.945312 410.75 C 372.363281 410.519531 371.957031 410.324219 371.605469 409.675781 C 370.757812 408.132812 369.894531 406.519531 368.058594 405.816406 C 367.292969 405.523438 366.597656 405.078125 365.898438 404.613281 C 364.867188 403.925781 363.878906 403.023438 362.421875 403.3125 C 361.902344 403.414062 361.367188 403.046875 360.949219 402.726562 C 359.929688 401.949219 358.742188 401.386719 357.585938 401.03125 C 356.085938 400.566406 354.394531 400.613281 352.960938 401.570312 C 351.757812 402.371094 351.082031 403.621094 350.476562 404.894531 Z M 350.476562 404.894531 "/>
<path style=" stroke:none;fill-rule:evenodd;fill:rgb(92.549133%,62.348938%,25.878906%);fill-opacity:1;" d="M 350.476562 404.894531 C 351.082031 403.621094 351.757812 402.371094 352.960938 401.570312 C 354.394531 400.613281 356.085938 400.566406 357.585938 401.03125 C 358.742188 401.386719 359.929688 401.949219 360.949219 402.726562 C 361.371094 403.046875 361.90625 403.414062 362.425781 403.3125 C 363.878906 403.023438 364.867188 403.925781 365.902344 404.613281 C 366.597656 405.078125 367.296875 405.523438 368.0625 405.816406 C 369.894531 406.519531 370.757812 408.132812 371.605469 409.675781 C 371.957031 410.324219 372.363281 410.519531 372.945312 410.75 C 374.554688 411.386719 376.375 411.445312 377.867188 412.347656 C 379.050781 413.054688 380.144531 413.925781 381.167969 414.847656 C 381.742188 415.367188 381.691406 416.195312 381.800781 416.988281 C 382.011719 418.574219 382.0625 420.171875 382.324219 421.746094 C 382.476562 422.671875 382.261719 423.191406 381.5625 423.867188 C 380.390625 425 379.429688 426.390625 378.421875 427.660156 C 377.011719 429.433594 375.417969 431.523438 372.667969 431.667969 C 371.410156 431.734375 370.042969 433.445312 369.609375 434.820312 C 369.308594 435.757812 368.46875 436.515625 367.992188 437.417969 C 366.929688 439.441406 365.347656 440.722656 363.09375 441.140625 C 362.535156 441.246094 362.269531 441.761719 361.738281 441.960938 C 360.582031 442.390625 359.671875 441.78125 358.765625 441.363281 C 358.121094 441.054688 357.9375 441.1875 357.675781 441.734375 C 357.285156 442.546875 354.695312 443.878906 353.804688 443.78125 C 352.738281 443.660156 350.683594 441.53125 350.949219 440.460938 C 351.289062 439.105469 350.714844 438.285156 349.828125 437.617188 C 348.570312 436.667969 348.292969 435 347.011719 434.066406 C 346.503906 433.695312 346.078125 433.460938 345.460938 433.511719 C 344.183594 433.617188 343.558594 432.902344 344.019531 431.734375 C 344.4375 430.6875 344.078125 430.042969 343.328125 429.359375 C 341.375 427.566406 339.371094 425.800781 338.585938 423.117188 C 338.394531 422.453125 337.695312 422.167969 337.445312 421.519531 C 336.945312 420.210938 337.246094 419.046875 338.382812 418.285156 C 339.621094 417.457031 340.050781 415.9375 339.335938 414.613281 C 338.964844 413.929688 338.890625 413.199219 338.773438 412.472656 C 338.734375 412.238281 338.714844 411.839844 338.84375 411.757812 C 340.554688 410.671875 339.722656 408.785156 340.253906 407.335938 C 340.578125 406.464844 342.007812 405.1875 342.902344 405.246094 C 344.421875 405.347656 346 404.84375 347.460938 405.65625 C 347.636719 405.757812 347.867188 405.75 348.046875 405.839844 C 349.671875 406.640625 349.667969 406.644531 350.476562 404.894531 Z M 350.476562 404.894531 "/>
<path style=" stroke:none;fill-rule:evenodd;fill:rgb(93.728638%,74.508667%,63.919067%);fill-opacity:1;" d="M 582.324219 328.679688 C 581.367188 329.789062 579.46875 330.671875 577.992188 332.085938 C 577.355469 332.691406 576.429688 332.722656 575.644531 333.035156 C 572.871094 334.132812 570.027344 335.179688 567.007812 334.8125 C 564.339844 334.492188 561.691406 333.980469 559.070312 333.289062 C 553.398438 331.804688 548.546875 328.644531 543.4375 325.988281 C 541.171875 324.808594 538.886719 323.660156 536.613281 322.5 C 536.398438 322.390625 536.167969 322.320312 535.972656 322.191406 C 534.164062 321.011719 533.488281 321.242188 533.523438 323.378906 C 533.585938 327.503906 532.886719 331.539062 532.453125 335.617188 C 531.839844 341.324219 530.230469 346.609375 526.953125 351.3125 C 524.421875 354.945312 521.355469 358.070312 517.476562 360.320312 C 517.035156 360.574219 516.5625 360.535156 516.117188 360.679688 C 511.355469 362.242188 506.570312 361.539062 501.742188 360.988281 C 498.152344 360.574219 494.9375 359.335938 491.800781 357.65625 C 488.414062 355.839844 485.21875 353.730469 482.621094 350.9375 C 480.582031 348.746094 479.023438 346.1875 478 343.253906 C 476.949219 340.265625 476.84375 337.214844 476.800781 334.183594 C 476.761719 331.292969 476.914062 328.363281 477.539062 325.46875 C 477.867188 323.9375 477.722656 322.28125 477.898438 320.679688 C 478.09375 318.90625 478.011719 317.101562 478.0625 315.3125 C 478.097656 313.785156 477.789062 313.597656 476.371094 314.007812 C 473.597656 314.804688 470.742188 315.34375 467.878906 315.417969 C 466.171875 315.460938 464.484375 314.582031 462.710938 314.589844 C 457.195312 314.613281 452.890625 312.03125 449.070312 308.328125 C 447.785156 307.082031 446.136719 306.199219 445.125 304.675781 C 443.828125 302.726562 442.160156 301.105469 440.722656 299.28125 C 440.066406 298.441406 439.949219 297.414062 439.945312 296.347656 C 439.9375 293.609375 440.539062 290.882812 440.027344 288.144531 C 439.785156 286.851562 439.757812 285.535156 439.332031 284.257812 C 438.523438 281.847656 439.363281 279.632812 440.386719 277.472656 C 441.546875 275.023438 442.578125 272.496094 443.902344 270.136719 C 444.660156 268.792969 445.703125 267.625 446.910156 266.507812 C 448.859375 264.707031 451.179688 263.980469 453.492188 263.210938 C 455.207031 262.636719 457.105469 262.640625 458.914062 262.335938 C 461.007812 261.988281 463.015625 261.339844 464.855469 260.265625 C 465.53125 259.871094 465.882812 259.195312 465.410156 258.445312 C 463.726562 255.777344 462.070312 253.09375 460.351562 250.453125 C 458.867188 248.167969 457.542969 245.707031 456.773438 243.027344 C 456.644531 242.578125 456.542969 242.039062 456.242188 241.726562 C 454.050781 239.472656 454.933594 236.722656 455.089844 234.164062 C 455.285156 231.089844 456.644531 228.328125 458.167969 225.691406 C 460.296875 222.015625 462.828125 218.644531 465.765625 215.558594 C 467.199219 214.046875 468.746094 212.703125 470.332031 211.359375 C 472.515625 209.507812 475.160156 209.445312 477.625 208.660156 C 478.023438 208.535156 478.527344 208.613281 478.863281 208.40625 C 480.664062 207.28125 482.78125 207.289062 484.730469 207.015625 C 486.523438 206.761719 488.488281 207.300781 490.265625 207.945312 C 491.875 208.527344 493.441406 209.167969 495.207031 208.976562 C 495.949219 208.894531 496.542969 209.429688 497.226562 209.601562 C 500.042969 210.320312 501.890625 212.382812 504.011719 214.1875 C 506.917969 216.660156 508.664062 220.039062 511.332031 222.675781 C 512.867188 224.1875 513.238281 224.246094 514.625 222.558594 C 516.335938 220.484375 517.824219 218.109375 519.898438 216.488281 C 522.199219 214.691406 524.464844 212.660156 527.632812 212.074219 C 529.464844 211.734375 531.421875 211.984375 533.113281 211.261719 C 536.117188 209.988281 538.851562 211.664062 541.710938 211.730469 C 542.738281 211.753906 543.320312 212.664062 544.160156 213.078125 C 545.726562 213.84375 547.453125 214.226562 548.921875 215.269531 C 549.5625 215.726562 550.527344 215.445312 551.410156 215.902344 C 553.121094 216.789062 554.046875 218.316406 554.867188 219.75 C 556.234375 222.15625 557.851562 224.472656 558.652344 227.191406 C 558.898438 228.042969 559.316406 228.847656 559.90625 229.566406 C 560.753906 230.601562 560.75 231.980469 560.917969 233.203125 C 561.179688 235.046875 561.394531 236.90625 561.097656 238.820312 C 560.785156 240.769531 560.6875 242.765625 561.027344 244.773438 C 561.171875 245.617188 560.890625 246.550781 560.699219 247.421875 C 559.917969 250.976562 559.558594 254.714844 558.160156 258.015625 C 556.699219 261.460938 556.25 265.289062 554.09375 268.460938 C 553.449219 269.410156 553.816406 269.894531 554.910156 269.84375 C 558.617188 269.671875 562.269531 270.085938 565.875 270.949219 C 567.257812 271.277344 568.652344 271.5 570.082031 271.449219 C 571.425781 271.398438 572.753906 271.859375 573.917969 272.261719 C 575.652344 272.867188 577.421875 273 579.160156 273.386719 C 580.433594 273.675781 581.707031 274.1875 582.800781 274.753906 C 586.023438 276.414062 589.367188 277.894531 592.304688 280.078125 C 595.324219 282.3125 597.507812 285.125 598.507812 288.777344 C 598.917969 290.273438 600.011719 291.667969 599.746094 293.242188 C 599.214844 296.441406 599.367188 299.722656 598.542969 302.882812 C 598.289062 303.84375 598.1875 304.875 597.769531 305.757812 C 595.53125 310.472656 593.746094 315.40625 590.441406 319.589844 C 588.039062 322.640625 585.609375 325.628906 582.324219 328.679688 Z M 531.726562 277.226562 C 530.257812 275.585938 530.261719 275.589844 531.839844 274.246094 C 532.015625 274.09375 532.117188 273.851562 532.292969 273.710938 C 533.820312 272.546875 534 270.648438 534.800781 269.09375 C 535.269531 268.183594 534.574219 266.101562 533.800781 265.363281 C 532.523438 264.144531 530.160156 264.164062 529.792969 261.875 C 529.765625 261.703125 529.339844 261.535156 529.074219 261.472656 C 528.25 261.265625 527.453125 261.007812 526.566406 261.089844 C 524.847656 261.242188 523.445312 260.101562 523.132812 258.421875 C 522.847656 256.878906 521.757812 256.03125 520.160156 255.96875 C 519.355469 255.933594 518.742188 256.539062 517.953125 256.441406 C 514.773438 256.046875 512.003906 257.355469 509.230469 258.597656 C 508.171875 259.074219 507.332031 259.15625 506.417969 258.246094 C 505.398438 257.226562 504.363281 257.5625 503.894531 258.953125 C 503.667969 259.625 503.222656 259.964844 502.605469 260.335938 C 501.039062 261.257812 499.160156 260.792969 497.589844 261.683594 C 496.484375 262.3125 495.359375 262.546875 494.085938 261.574219 C 493.082031 260.804688 489.90625 262 489.292969 263.070312 C 488.789062 263.957031 489.015625 267.289062 489.695312 268.074219 C 490.144531 268.597656 490.203125 268.847656 489.589844 269.394531 C 488.738281 270.148438 487.675781 270.832031 487.609375 272.246094 C 487.574219 272.894531 488 273.410156 487.855469 274.042969 C 487.269531 276.605469 487.902344 278.855469 489.546875 280.890625 C 490.28125 281.800781 490.695312 283.03125 491.550781 283.777344 C 492.796875 284.855469 493.976562 287.066406 493.472656 288.421875 C 492.375 291.382812 493.855469 294.007812 495.078125 296.296875 C 495.957031 297.9375 496.980469 299.578125 497.644531 301.324219 C 498.039062 302.367188 498.484375 302.832031 499.53125 303.09375 C 501.300781 303.535156 503.011719 304.203125 504.773438 304.699219 C 505.65625 304.945312 506.507812 305.375 507.316406 305.007812 C 508.75 304.355469 510.167969 303.589844 511.445312 302.671875 C 513.070312 301.507812 513.960938 299.625 515.363281 298.214844 C 515.871094 297.707031 516.257812 297.371094 517.105469 297.292969 C 519.113281 297.105469 521.199219 296.925781 522.769531 295.316406 C 523.429688 294.644531 524.214844 294.113281 525.019531 293.589844 C 526.214844 292.816406 527.609375 292.1875 527.96875 290.523438 C 528.09375 289.929688 528.726562 289.535156 529.257812 289.238281 C 530.535156 288.519531 531.667969 287.519531 532.566406 286.472656 C 533.738281 285.101562 534.457031 283.296875 534.101562 281.355469 C 533.800781 279.722656 532.796875 278.441406 531.726562 277.226562 Z M 531.726562 277.226562 "/>
<path style=" stroke:none;fill-rule:evenodd;fill:rgb(92.549133%,62.348938%,25.878906%);fill-opacity:1;" d="M 531.726562 277.226562 C 532.796875 278.441406 533.800781 279.722656 534.101562 281.355469 C 534.457031 283.296875 533.738281 285.101562 532.566406 286.472656 C 531.667969 287.519531 530.535156 288.519531 529.257812 289.238281 C 528.730469 289.535156 528.097656 289.929688 527.96875 290.523438 C 527.609375 292.1875 526.214844 292.816406 525.019531 293.589844 C 524.214844 294.113281 523.429688 294.644531 522.769531 295.316406 C 521.199219 296.925781 519.113281 297.105469 517.105469 297.292969 C 516.257812 297.371094 515.871094 297.707031 515.363281 298.214844 C 513.960938 299.625 513.070312 301.507812 511.445312 302.671875 C 510.167969 303.589844 508.75 304.355469 507.316406 305.007812 C 506.507812 305.375 505.65625 304.945312 504.773438 304.699219 C 503.011719 304.203125 501.304688 303.535156 499.53125 303.09375 C 498.484375 302.832031 498.039062 302.367188 497.644531 301.324219 C 496.980469 299.578125 495.957031 297.9375 495.078125 296.296875 C 493.855469 294.007812 492.375 291.382812 493.472656 288.421875 C 493.976562 287.066406 492.796875 284.855469 491.550781 283.777344 C 490.695312 283.03125 490.28125 281.800781 489.546875 280.890625 C 487.902344 278.855469 487.269531 276.605469 487.855469 274.042969 C 488 273.410156 487.574219 272.894531 487.609375 272.246094 C 487.675781 270.832031 488.738281 270.148438 489.589844 269.394531 C 490.203125 268.847656 490.144531 268.597656 489.695312 268.074219 C 489.015625 267.289062 488.789062 263.957031 489.292969 263.066406 C 489.90625 262 493.082031 260.804688 494.085938 261.574219 C 495.363281 262.546875 496.484375 262.3125 497.589844 261.683594 C 499.160156 260.792969 501.039062 261.257812 502.605469 260.335938 C 503.222656 259.964844 503.667969 259.625 503.894531 258.953125 C 504.363281 257.5625 505.398438 257.226562 506.417969 258.246094 C 507.332031 259.15625 508.171875 259.074219 509.234375 258.597656 C 512.003906 257.351562 514.773438 256.046875 517.953125 256.441406 C 518.742188 256.539062 519.355469 255.933594 520.160156 255.96875 C 521.757812 256.03125 522.847656 256.878906 523.132812 258.421875 C 523.445312 260.101562 524.847656 261.242188 526.566406 261.089844 C 527.453125 261.007812 528.253906 261.265625 529.074219 261.472656 C 529.339844 261.535156 529.765625 261.703125 529.792969 261.871094 C 530.160156 264.164062 532.523438 264.144531 533.804688 265.363281 C 534.574219 266.101562 535.269531 268.183594 534.800781 269.09375 C 534 270.648438 533.820312 272.546875 532.296875 273.710938 C 532.117188 273.851562 532.015625 274.09375 531.839844 274.246094 C 530.261719 275.589844 530.257812 275.585938 531.726562 277.226562 Z M 531.726562 277.226562 "/>
<path style=" stroke:none;fill-rule:evenodd;fill:rgb(94.898987%,32.159424%,23.139954%);fill-opacity:1;" d="M 355.609375 222.4375 C 354.519531 223.101562 352.707031 223.320312 351.09375 224.09375 C 350.410156 224.425781 349.628906 224.195312 348.894531 224.246094 C 346.296875 224.40625 343.652344 224.503906 341.25 223.386719 C 339.125 222.394531 337.0625 221.257812 335.074219 219.976562 C 330.777344 217.207031 327.605469 213.277344 324.085938 209.691406 C 322.527344 208.101562 320.941406 206.53125 319.367188 204.949219 C 319.222656 204.800781 319.050781 204.679688 318.921875 204.519531 C 317.738281 203.050781 317.113281 203.0625 316.570312 204.839844 C 315.507812 208.285156 313.835938 211.441406 312.371094 214.707031 C 310.320312 219.273438 307.558594 223.222656 303.5625 226.234375 C 300.484375 228.5625 297.097656 230.328125 293.265625 231.144531 C 292.832031 231.234375 292.453125 231.078125 292.042969 231.074219 C 287.671875 231.082031 283.894531 229.207031 280.039062 227.441406 C 277.171875 226.128906 274.839844 224.234375 272.695312 221.992188 C 270.375 219.566406 268.292969 216.953125 266.894531 213.929688 C 265.796875 211.570312 265.195312 209.023438 265.136719 206.3125 C 265.074219 203.546875 265.8125 200.992188 266.601562 198.46875 C 267.347656 196.054688 268.269531 193.667969 269.570312 191.4375 C 270.257812 190.253906 270.582031 188.839844 271.164062 187.558594 C 271.804688 186.140625 272.226562 184.621094 272.75 183.152344 C 273.191406 181.894531 272.984375 181.65625 271.699219 181.605469 C 269.179688 181.523438 266.671875 181.199219 264.269531 180.488281 C 262.847656 180.0625 261.6875 178.875 260.210938 178.398438 C 255.628906 176.929688 252.753906 173.621094 250.589844 169.519531 C 249.863281 168.132812 248.730469 166.953125 248.308594 165.421875 C 247.761719 163.457031 246.808594 161.660156 246.113281 159.757812 C 245.792969 158.882812 245.976562 157.996094 246.261719 157.109375 C 246.992188 154.835938 248.230469 152.738281 248.550781 150.328125 C 248.699219 149.191406 249.03125 148.09375 249.023438 146.917969 C 249.003906 144.703125 250.300781 143.09375 251.730469 141.578125 C 253.359375 139.855469 254.898438 138.042969 256.632812 136.445312 C 257.625 135.53125 258.808594 134.84375 260.113281 134.246094 C 262.214844 133.277344 264.332031 133.300781 266.460938 133.289062 C 268.035156 133.277344 269.613281 133.796875 271.195312 134.03125 C 273.027344 134.308594 274.867188 134.3125 276.683594 133.921875 C 277.347656 133.773438 277.824219 133.3125 277.632812 132.5625 C 276.960938 129.894531 276.3125 127.222656 275.597656 124.5625 C 274.988281 122.269531 274.554688 119.871094 274.644531 117.4375 C 274.65625 117.03125 274.71875 116.554688 274.550781 116.214844 C 273.34375 113.75 274.824219 111.707031 275.648438 109.632812 C 276.636719 107.128906 278.511719 105.210938 280.488281 103.433594 C 283.246094 100.960938 286.261719 98.851562 289.53125 97.082031 C 291.128906 96.21875 292.773438 95.519531 294.457031 94.835938 C 296.761719 93.890625 298.976562 94.554688 301.230469 94.574219 C 301.597656 94.574219 301.992188 94.777344 302.324219 94.695312 C 304.125 94.246094 305.878906 94.824219 307.570312 95.128906 C 309.125 95.402344 310.609375 96.382812 311.910156 97.398438 C 313.089844 98.316406 314.210938 99.273438 315.734375 99.585938 C 316.367188 99.722656 316.714844 100.324219 317.238281 100.652344 C 319.378906 102.011719 320.351562 104.226562 321.621094 106.292969 C 323.363281 109.128906 323.902344 112.40625 325.398438 115.3125 C 326.261719 116.984375 326.554688 117.128906 328.164062 116.105469 C 330.144531 114.847656 332.019531 113.28125 334.175781 112.5 C 336.574219 111.628906 339 110.5625 341.789062 110.929688 C 343.398438 111.140625 344.953125 111.878906 346.554688 111.738281 C 349.390625 111.492188 351.199219 113.621094 353.558594 114.449219 C 354.398438 114.746094 354.640625 115.664062 355.226562 116.230469 C 356.316406 117.289062 357.644531 118.074219 358.578125 119.335938 C 358.988281 119.886719 359.863281 119.917969 360.472656 120.535156 C 361.652344 121.734375 362.007812 123.246094 362.296875 124.664062 C 362.78125 127.03125 363.503906 129.382812 363.425781 131.859375 C 363.402344 132.628906 363.53125 133.410156 363.824219 134.164062 C 364.25 135.253906 363.867188 136.398438 363.679688 137.457031 C 363.398438 139.054688 363.074219 140.65625 362.308594 142.164062 C 361.527344 143.699219 360.90625 145.328125 360.640625 147.082031 C 360.535156 147.820312 360.046875 148.523438 359.652344 149.191406 C 358.042969 151.925781 356.734375 154.933594 354.683594 157.289062 C 352.539062 159.753906 351.132812 162.808594 348.484375 164.855469 C 347.695312 165.46875 347.863281 165.96875 348.785156 166.222656 C 351.910156 167.082031 354.828125 168.414062 357.585938 170.105469 C 358.644531 170.753906 359.738281 171.3125 360.941406 171.660156 C 362.066406 171.976562 363.042969 172.71875 363.898438 173.367188 C 365.175781 174.339844 366.605469 174.925781 367.945312 175.722656 C 368.917969 176.304688 369.835938 177.074219 370.59375 177.839844 C 372.816406 180.089844 375.191406 182.21875 377.039062 184.828125 C 378.933594 187.5 379.992188 190.417969 379.832031 193.71875 C 379.765625 195.070312 380.296875 196.523438 379.648438 197.757812 C 378.339844 200.269531 377.578125 203.03125 376.046875 205.425781 C 375.574219 206.15625 375.210938 206.984375 374.621094 207.601562 C 371.492188 210.910156 368.679688 214.519531 364.804688 217.097656 C 361.988281 218.976562 359.164062 220.800781 355.609375 222.4375 Z M 327.5625 166.078125 C 326.789062 164.320312 326.789062 164.320312 328.457031 163.636719 C 328.648438 163.558594 328.796875 163.382812 328.984375 163.316406 C 330.566406 162.757812 331.226562 161.234375 332.3125 160.160156 C 332.949219 159.535156 332.929688 157.617188 332.492188 156.796875 C 331.757812 155.4375 329.796875 154.820312 330.109375 152.816406 C 330.128906 152.667969 329.824219 152.414062 329.621094 152.289062 C 328.996094 151.898438 328.40625 151.472656 327.640625 151.292969 C 326.175781 150.957031 325.324219 149.628906 325.519531 148.15625 C 325.699219 146.796875 325.027344 145.804688 323.714844 145.3125 C 323.0625 145.070312 322.386719 145.40625 321.757812 145.113281 C 319.226562 143.925781 316.574219 144.257812 313.941406 144.539062 C 312.933594 144.648438 312.214844 144.492188 311.703125 143.488281 C 311.136719 142.367188 310.1875 142.363281 309.417969 143.390625 C 309.046875 143.886719 308.589844 144.050781 307.976562 144.183594 C 306.429688 144.527344 304.996094 143.636719 303.449219 143.949219 C 302.363281 144.171875 301.367188 144.0625 300.578125 142.910156 C 299.949219 142.003906 296.992188 142.136719 296.195312 142.855469 C 295.53125 143.457031 294.824219 146.28125 295.167969 147.117188 C 295.40625 147.675781 295.386719 147.894531 294.726562 148.179688 C 293.816406 148.582031 292.753906 148.859375 292.3125 150.011719 C 292.113281 150.542969 292.324219 151.085938 292.03125 151.570312 C 290.855469 153.535156 290.769531 155.574219 291.582031 157.707031 C 291.949219 158.664062 291.957031 159.792969 292.464844 160.640625 C 293.207031 161.871094 293.585938 164.027344 292.800781 165.015625 C 291.09375 167.175781 291.613281 169.75 292.003906 171.980469 C 292.289062 173.582031 292.699219 175.21875 292.773438 176.847656 C 292.816406 177.816406 293.066406 178.324219 293.859375 178.824219 C 295.210938 179.671875 296.445312 180.6875 297.773438 181.574219 C 298.441406 182.015625 299.03125 182.605469 299.800781 182.515625 C 301.167969 182.363281 302.546875 182.113281 303.859375 181.695312 C 305.523438 181.171875 306.769531 179.851562 308.3125 179.0625 C 308.867188 178.777344 309.285156 178.601562 310.003906 178.765625 C 311.722656 179.152344 313.507812 179.570312 315.242188 178.65625 C 315.96875 178.277344 316.765625 178.050781 317.574219 177.835938 C 318.773438 177.515625 320.101562 177.375 320.847656 176.089844 C 321.117188 175.632812 321.746094 175.472656 322.261719 175.367188 C 323.523438 175.121094 324.730469 174.597656 325.757812 173.972656 C 327.101562 173.152344 328.183594 171.851562 328.414062 170.144531 C 328.609375 168.710938 328.121094 167.378906 327.5625 166.078125 Z M 327.5625 166.078125 "/>
<path style=" stroke:none;fill-rule:evenodd;fill:rgb(94.898987%,69.018555%,20.779419%);fill-opacity:1;" d="M 327.5625 166.078125 C 328.121094 167.378906 328.609375 168.710938 328.414062 170.144531 C 328.183594 171.851562 327.101562 173.152344 325.753906 173.972656 C 324.730469 174.597656 323.519531 175.121094 322.261719 175.367188 C 321.746094 175.472656 321.113281 175.632812 320.847656 176.089844 C 320.101562 177.371094 318.769531 177.515625 317.574219 177.835938 C 316.765625 178.050781 315.96875 178.277344 315.242188 178.65625 C 313.503906 179.570312 311.722656 179.152344 310.003906 178.765625 C 309.28125 178.601562 308.867188 178.777344 308.3125 179.0625 C 306.769531 179.851562 305.523438 181.171875 303.855469 181.695312 C 302.546875 182.113281 301.164062 182.363281 299.796875 182.515625 C 299.03125 182.605469 298.441406 182.019531 297.773438 181.574219 C 296.445312 180.6875 295.210938 179.671875 293.859375 178.824219 C 293.066406 178.324219 292.816406 177.816406 292.773438 176.847656 C 292.699219 175.21875 292.289062 173.582031 292.003906 171.980469 C 291.609375 169.75 291.09375 167.175781 292.800781 165.015625 C 293.585938 164.027344 293.203125 161.871094 292.464844 160.640625 C 291.957031 159.792969 291.945312 158.660156 291.582031 157.707031 C 290.769531 155.574219 290.855469 153.535156 292.03125 151.570312 C 292.324219 151.085938 292.109375 150.542969 292.3125 150.011719 C 292.753906 148.859375 293.8125 148.582031 294.726562 148.179688 C 295.386719 147.894531 295.402344 147.675781 295.167969 147.117188 C 294.820312 146.28125 295.53125 143.457031 296.191406 142.855469 C 296.988281 142.136719 299.949219 142.003906 300.574219 142.910156 C 301.363281 144.0625 302.359375 144.171875 303.449219 143.949219 C 304.992188 143.636719 306.429688 144.53125 307.976562 144.183594 C 308.589844 144.050781 309.046875 143.886719 309.417969 143.390625 C 310.183594 142.363281 311.136719 142.367188 311.703125 143.488281 C 312.210938 144.492188 312.929688 144.648438 313.9375 144.539062 C 316.574219 144.257812 319.226562 143.925781 321.757812 145.113281 C 322.386719 145.40625 323.0625 145.070312 323.714844 145.3125 C 325.023438 145.804688 325.699219 146.800781 325.519531 148.15625 C 325.320312 149.628906 326.175781 150.957031 327.640625 151.292969 C 328.40625 151.472656 328.996094 151.898438 329.617188 152.289062 C 329.824219 152.414062 330.128906 152.667969 330.109375 152.816406 C 329.792969 154.820312 331.757812 155.4375 332.492188 156.796875 C 332.929688 157.617188 332.945312 159.535156 332.3125 160.160156 C 331.226562 161.234375 330.5625 162.757812 328.984375 163.316406 C 328.796875 163.382812 328.644531 163.558594 328.457031 163.636719 C 326.789062 164.320312 326.789062 164.320312 327.5625 166.078125 Z M 327.5625 166.078125 "/>
<path style=" stroke:none;fill-rule:evenodd;fill:rgb(94.898987%,32.159424%,23.139954%);fill-opacity:1;" d="M 140.304688 257.484375 C 140.609375 258.726562 140.277344 260.523438 140.527344 262.285156 C 140.632812 263.046875 140.1875 263.71875 140.011719 264.433594 C 139.382812 266.957031 138.683594 269.507812 136.890625 271.464844 C 135.308594 273.195312 133.601562 274.816406 131.785156 276.328125 C 127.851562 279.597656 123.148438 281.441406 118.671875 283.71875 C 116.683594 284.730469 114.710938 285.769531 112.730469 286.792969 C 112.546875 286.886719 112.378906 287.015625 112.1875 287.089844 C 110.429688 287.777344 110.253906 288.371094 111.785156 289.433594 C 114.753906 291.480469 117.261719 294.023438 119.929688 296.402344 C 123.671875 299.730469 126.609375 303.550781 128.28125 308.265625 C 129.578125 311.90625 130.238281 315.667969 129.871094 319.5625 C 129.824219 320.007812 129.558594 320.320312 129.433594 320.710938 C 128.128906 324.882812 125.203125 327.921875 122.359375 331.066406 C 120.246094 333.402344 117.738281 335.058594 114.953125 336.433594 C 111.945312 337.914062 108.828125 339.113281 105.523438 339.539062 C 102.9375 339.875 100.332031 339.6875 97.730469 338.925781 C 95.074219 338.15625 92.855469 336.679688 90.6875 335.171875 C 88.609375 333.734375 86.605469 332.140625 84.875 330.226562 C 83.953125 329.214844 82.703125 328.480469 81.652344 327.542969 C 80.492188 326.503906 79.171875 325.648438 77.925781 324.703125 C 76.859375 323.90625 76.570312 324.027344 76.140625 325.246094 C 75.300781 327.617188 74.238281 329.917969 72.835938 331.988281 C 72 333.21875 70.523438 333.96875 69.625 335.238281 C 66.847656 339.164062 62.828125 340.910156 58.265625 341.742188 C 56.726562 342.019531 55.261719 342.742188 53.671875 342.6875 C 51.632812 342.617188 49.632812 342.984375 47.605469 343.078125 C 46.675781 343.117188 45.886719 342.679688 45.128906 342.140625 C 43.183594 340.761719 41.554688 338.945312 39.347656 337.917969 C 38.304688 337.4375 37.359375 336.785156 36.234375 336.4375 C 34.117188 335.792969 32.96875 334.074219 31.957031 332.253906 C 30.804688 330.183594 29.539062 328.171875 28.53125 326.035156 C 27.964844 324.8125 27.664062 323.476562 27.484375 322.058594 C 27.195312 319.757812 27.855469 317.746094 28.480469 315.714844 C 28.941406 314.207031 29.910156 312.863281 30.613281 311.421875 C 31.425781 309.761719 31.984375 308.003906 32.15625 306.15625 C 32.214844 305.476562 31.917969 304.882812 31.148438 304.835938 C 28.398438 304.679688 25.652344 304.496094 22.90625 304.375 C 20.535156 304.269531 18.117188 303.960938 15.820312 303.144531 C 15.433594 303.007812 15.003906 302.808594 14.628906 302.867188 C 11.914062 303.277344 10.410156 301.25 8.675781 299.84375 C 6.589844 298.148438 5.320312 295.78125 4.222656 293.363281 C 2.695312 289.988281 1.585938 286.476562 0.878906 282.832031 C 0.539062 281.042969 0.371094 279.261719 0.21875 277.457031 C 0.015625 274.96875 1.3125 273.058594 2.003906 270.914062 C 2.117188 270.566406 2.429688 270.246094 2.453125 269.90625 C 2.5625 268.054688 3.644531 266.554688 4.441406 265.035156 C 5.171875 263.632812 6.550781 262.511719 7.910156 261.574219 C 9.144531 260.730469 10.386719 259.945312 11.148438 258.589844 C 11.46875 258.023438 12.144531 257.875 12.617188 257.480469 C 14.558594 255.84375 16.960938 255.578125 19.3125 254.988281 C 22.542969 254.179688 25.828125 254.65625 29.050781 254.097656 C 30.902344 253.773438 31.132812 253.542969 30.640625 251.699219 C 30.035156 249.4375 29.101562 247.171875 29.003906 244.878906 C 28.898438 242.332031 28.609375 239.695312 29.796875 237.148438 C 30.484375 235.671875 31.652344 234.414062 32 232.847656 C 32.621094 230.070312 35.195312 228.980469 36.691406 226.980469 C 37.230469 226.265625 38.171875 226.316406 38.890625 225.925781 C 40.230469 225.203125 41.375 224.171875 42.863281 223.660156 C 43.511719 223.4375 43.800781 222.609375 44.574219 222.214844 C 46.070312 221.453125 47.625 221.566406 49.0625 221.714844 C 51.460938 221.964844 53.925781 221.984375 56.261719 222.804688 C 56.988281 223.054688 57.773438 223.167969 58.585938 223.113281 C 59.75 223.039062 60.71875 223.742188 61.679688 224.242188 C 63.117188 224.996094 64.546875 225.78125 65.753906 226.964844 C 66.988281 228.171875 68.347656 229.257812 69.949219 230.035156 C 70.617188 230.355469 71.140625 231.03125 71.660156 231.613281 C 73.785156 233.96875 76.257812 236.125 77.890625 238.789062 C 79.59375 241.570312 82.082031 243.832031 83.242188 246.972656 C 83.589844 247.910156 84.117188 247.898438 84.640625 247.097656 C 86.398438 244.375 88.542969 241.992188 90.980469 239.871094 C 91.921875 239.058594 92.785156 238.179688 93.472656 237.136719 C 94.117188 236.160156 95.121094 235.449219 95.996094 234.832031 C 97.304688 233.902344 98.296875 232.714844 99.453125 231.679688 C 100.300781 230.921875 101.316406 230.28125 102.273438 229.789062 C 105.085938 228.34375 107.832031 226.722656 110.871094 225.742188 C 113.988281 224.738281 117.09375 224.609375 120.195312 225.753906 C 121.464844 226.222656 123.007812 226.152344 123.992188 227.140625 C 125.992188 229.140625 128.402344 230.699219 130.222656 232.882812 C 130.777344 233.550781 131.457031 234.148438 131.867188 234.890625 C 134.078125 238.871094 136.679688 242.640625 137.976562 247.109375 C 138.917969 250.363281 139.808594 253.605469 140.304688 257.484375 Z M 78.121094 267.292969 C 76.210938 267.507812 76.214844 267.507812 76.058594 265.699219 C 76.046875 265.5 75.921875 265.308594 75.914062 265.105469 C 75.859375 263.433594 74.605469 262.339844 73.90625 260.984375 C 73.496094 260.191406 71.664062 259.628906 70.75 259.800781 C 69.234375 260.09375 68.050781 261.78125 66.238281 260.878906 C 66.101562 260.8125 65.769531 261.03125 65.585938 261.183594 C 65.027344 261.664062 64.441406 262.097656 64.046875 262.769531 C 63.28125 264.070312 61.761719 264.484375 60.414062 263.855469 C 59.171875 263.277344 58.019531 263.617188 57.15625 264.722656 C 56.734375 265.273438 56.847656 266.015625 56.382812 266.523438 C 54.488281 268.585938 54.007812 271.214844 53.484375 273.8125 C 53.285156 274.804688 52.917969 275.445312 51.808594 275.628906 C 50.566406 275.835938 50.28125 276.742188 51.03125 277.777344 C 51.390625 278.28125 51.410156 278.769531 51.355469 279.394531 C 51.214844 280.976562 49.933594 282.074219 49.769531 283.640625 C 49.652344 284.742188 49.253906 285.660156 47.914062 286.070312 C 46.859375 286.394531 46.097656 289.253906 46.542969 290.230469 C 46.917969 291.042969 49.394531 292.570312 50.300781 292.488281 C 50.902344 292.433594 51.105469 292.515625 51.179688 293.230469 C 51.285156 294.21875 51.234375 295.316406 52.203125 296.085938 C 52.648438 296.4375 53.226562 296.398438 53.605469 296.820312 C 55.128906 298.53125 57.042969 299.226562 59.324219 299.09375 C 60.339844 299.035156 61.421875 299.363281 62.382812 299.132812 C 63.78125 298.796875 65.953125 299.085938 66.660156 300.128906 C 68.207031 302.40625 70.816406 302.6875 73.0625 302.980469 C 74.675781 303.191406 76.359375 303.296875 77.933594 303.710938 C 78.875 303.960938 79.429688 303.875 80.148438 303.265625 C 81.359375 302.234375 82.699219 301.363281 83.949219 300.359375 C 84.570312 299.863281 85.308594 299.472656 85.453125 298.714844 C 85.71875 297.363281 85.894531 295.972656 85.890625 294.597656 C 85.890625 292.851562 85.003906 291.265625 84.714844 289.558594 C 84.613281 288.9375 84.574219 288.492188 84.945312 287.855469 C 85.828125 286.332031 86.765625 284.757812 86.417969 282.828125 C 86.273438 282.019531 86.296875 281.195312 86.332031 280.359375 C 86.386719 279.117188 86.652344 277.808594 85.652344 276.707031 C 85.296875 276.316406 85.335938 275.667969 85.390625 275.148438 C 85.53125 273.867188 85.398438 272.5625 85.105469 271.390625 C 84.730469 269.863281 83.816406 268.4375 82.257812 267.707031 C 80.945312 267.089844 79.527344 267.152344 78.121094 267.292969 Z M 78.121094 267.292969 "/>
<path style=" stroke:none;fill-rule:evenodd;fill:rgb(94.898987%,69.018555%,20.779419%);fill-opacity:1;" d="M 78.121094 267.292969 C 79.527344 267.152344 80.945312 267.089844 82.253906 267.707031 C 83.816406 268.4375 84.730469 269.863281 85.105469 271.386719 C 85.394531 272.558594 85.53125 273.867188 85.390625 275.144531 C 85.335938 275.664062 85.292969 276.3125 85.652344 276.707031 C 86.652344 277.808594 86.386719 279.117188 86.332031 280.355469 C 86.292969 281.195312 86.273438 282.019531 86.417969 282.828125 C 86.761719 284.757812 85.824219 286.332031 84.941406 287.855469 C 84.570312 288.492188 84.613281 288.9375 84.714844 289.558594 C 85.003906 291.265625 85.886719 292.851562 85.890625 294.597656 C 85.890625 295.972656 85.71875 297.363281 85.453125 298.714844 C 85.304688 299.472656 84.570312 299.859375 83.945312 300.359375 C 82.699219 301.359375 81.359375 302.234375 80.148438 303.265625 C 79.429688 303.875 78.871094 303.960938 77.933594 303.710938 C 76.359375 303.296875 74.675781 303.191406 73.058594 302.980469 C 70.816406 302.6875 68.203125 302.40625 66.65625 300.128906 C 65.953125 299.085938 63.777344 298.796875 62.382812 299.132812 C 61.421875 299.359375 60.335938 299.035156 59.320312 299.089844 C 57.039062 299.226562 55.128906 298.53125 53.601562 296.816406 C 53.226562 296.398438 52.648438 296.433594 52.203125 296.085938 C 51.234375 295.3125 51.285156 294.21875 51.179688 293.226562 C 51.105469 292.515625 50.902344 292.433594 50.296875 292.488281 C 49.394531 292.570312 46.917969 291.042969 46.542969 290.230469 C 46.09375 289.253906 46.859375 286.394531 47.914062 286.066406 C 49.25 285.65625 49.652344 284.742188 49.765625 283.640625 C 49.929688 282.074219 51.214844 280.976562 51.355469 279.394531 C 51.40625 278.769531 51.390625 278.28125 51.027344 277.777344 C 50.28125 276.738281 50.566406 275.835938 51.804688 275.628906 C 52.917969 275.445312 53.285156 274.804688 53.480469 273.8125 C 54.007812 271.210938 54.484375 268.585938 56.382812 266.523438 C 56.84375 266.015625 56.730469 265.273438 57.15625 264.722656 C 58.019531 263.617188 59.171875 263.273438 60.410156 263.855469 C 61.757812 264.484375 63.28125 264.070312 64.042969 262.769531 C 64.441406 262.097656 65.023438 261.660156 65.585938 261.183594 C 65.769531 261.03125 66.101562 260.808594 66.238281 260.878906 C 68.050781 261.78125 69.234375 260.089844 70.75 259.800781 C 71.664062 259.628906 73.496094 260.191406 73.902344 260.984375 C 74.605469 262.339844 75.855469 263.433594 75.914062 265.105469 C 75.921875 265.308594 76.042969 265.5 76.058594 265.699219 C 76.214844 267.507812 76.210938 267.507812 78.121094 267.292969 Z M 78.121094 267.292969 "/>
<g clip-path="url(#clip1)" clip-rule="nonzero">
<path style=" stroke:none;fill-rule:evenodd;fill:rgb(1.959229%,52.159119%,52.549744%);fill-opacity:1;" d="M 101.605469 501.539062 C 100.417969 501.160156 99.09375 499.964844 97.492188 499.273438 C 96.808594 498.976562 96.480469 498.261719 95.976562 497.746094 C 94.191406 495.933594 92.429688 494.050781 91.714844 491.5625 C 91.085938 489.363281 90.601562 487.117188 90.277344 484.832031 C 89.5625 479.894531 90.429688 475.039062 90.824219 470.152344 C 90.996094 467.984375 91.140625 465.8125 91.296875 463.640625 C 91.3125 463.441406 91.292969 463.234375 91.328125 463.035156 C 91.652344 461.226562 91.246094 460.777344 89.585938 461.511719 C 86.367188 462.929688 82.96875 463.71875 79.628906 464.726562 C 74.953125 466.136719 70.277344 466.632812 65.496094 465.617188 C 61.8125 464.839844 58.34375 463.472656 55.292969 461.171875 C 54.945312 460.90625 54.820312 460.527344 54.558594 460.222656 C 51.757812 457.007812 50.71875 453.023438 49.554688 449.054688 C 48.6875 446.101562 48.589844 443.171875 48.867188 440.152344 C 49.175781 436.894531 49.765625 433.6875 51.097656 430.71875 C 52.140625 428.398438 53.628906 426.328125 55.585938 424.550781 C 57.585938 422.738281 59.941406 421.644531 62.304688 420.605469 C 64.5625 419.617188 66.910156 418.765625 69.386719 418.296875 C 70.699219 418.046875 71.945312 417.382812 73.265625 416.992188 C 74.71875 416.554688 76.105469 415.894531 77.527344 415.339844 C 78.738281 414.859375 78.777344 414.558594 77.988281 413.578125 C 76.441406 411.671875 75.074219 409.609375 74.066406 407.386719 C 73.464844 406.066406 73.597656 404.449219 73.003906 403.058594 C 71.152344 398.738281 71.757812 394.503906 73.394531 390.289062 C 73.945312 388.867188 74.089844 387.28125 74.949219 385.980469 C 76.050781 384.320312 76.761719 382.46875 77.71875 380.742188 C 78.160156 379.945312 78.925781 379.511719 79.765625 379.160156 C 81.90625 378.242188 84.246094 377.8125 86.230469 376.503906 C 87.160156 375.882812 88.183594 375.429688 89.046875 374.667969 C 90.664062 373.234375 92.679688 373.160156 94.714844 373.246094 C 97.019531 373.34375 99.34375 373.316406 101.632812 373.574219 C 102.9375 373.71875 104.199219 374.15625 105.476562 374.730469 C 107.535156 375.660156 108.875 377.238281 110.246094 378.796875 C 111.261719 379.953125 111.886719 381.441406 112.726562 382.757812 C 113.695312 384.285156 114.867188 385.644531 116.320312 386.730469 C 116.855469 387.132812 117.5 387.183594 117.929688 386.566406 C 119.46875 384.363281 121.023438 382.171875 122.527344 379.949219 C 123.824219 378.027344 125.3125 376.171875 127.164062 374.683594 C 127.472656 374.429688 127.863281 374.175781 128.007812 373.832031 C 129.046875 371.363281 131.5 371.148438 133.554688 370.425781 C 136.035156 369.554688 138.648438 369.707031 141.222656 370.027344 C 144.808594 370.476562 148.296875 371.351562 151.6875 372.625 C 153.351562 373.253906 154.914062 374.019531 156.496094 374.816406 C 158.667969 375.914062 159.597656 377.96875 161.027344 379.644531 C 161.261719 379.914062 161.363281 380.335938 161.636719 380.527344 C 163.121094 381.566406 163.816406 383.234375 164.675781 384.667969 C 165.46875 385.996094 165.699219 387.710938 165.78125 389.320312 C 165.855469 390.777344 165.871094 392.214844 166.613281 393.539062 C 166.921875 394.089844 166.699219 394.734375 166.785156 395.328125 C 167.160156 397.777344 166.148438 399.910156 165.441406 402.167969 C 164.460938 405.265625 162.390625 407.757812 161.207031 410.722656 C 160.53125 412.429688 160.609375 412.738281 162.390625 413.269531 C 164.585938 413.921875 166.941406 414.304688 168.898438 415.390625 C 171.074219 416.605469 173.414062 417.703125 174.925781 419.996094 C 175.800781 421.320312 176.253906 422.9375 177.378906 424.023438 C 179.378906 425.957031 178.964844 428.65625 179.863281 430.925781 C 180.1875 431.734375 179.667969 432.496094 179.621094 433.292969 C 179.539062 434.773438 179.808594 436.253906 179.480469 437.753906 C 179.332031 438.402344 179.871094 439.070312 179.804688 439.910156 C 179.675781 441.546875 178.789062 442.78125 177.933594 443.898438 C 176.496094 445.769531 175.222656 447.808594 173.351562 449.335938 C 172.769531 449.8125 172.277344 450.402344 171.910156 451.105469 C 171.375 452.113281 170.292969 452.5625 169.386719 453.105469 C 168.027344 453.921875 166.644531 454.707031 165.042969 455.105469 C 163.410156 455.511719 161.816406 456.097656 160.351562 457.027344 C 159.738281 457.417969 158.910156 457.507812 158.164062 457.648438 C 155.117188 458.210938 152.066406 459.167969 149.015625 459.167969 C 145.832031 459.164062 142.675781 460.078125 139.472656 459.4375 C 138.519531 459.246094 138.257812 459.695312 138.660156 460.539062 C 140.023438 463.390625 140.910156 466.390625 141.429688 469.503906 C 141.628906 470.699219 141.917969 471.867188 142.433594 472.96875 C 142.917969 474.007812 142.996094 475.203125 143.066406 476.25 C 143.164062 477.8125 143.652344 479.238281 143.917969 480.734375 C 144.113281 481.828125 144.136719 482.992188 144.058594 484.042969 C 143.820312 487.117188 143.769531 490.230469 143.035156 493.261719 C 142.277344 496.367188 140.796875 499.011719 138.265625 501.007812 C 137.226562 501.828125 136.492188 503.144531 135.171875 503.460938 C 132.484375 504.105469 129.960938 505.3125 127.210938 505.710938 C 126.375 505.832031 125.53125 506.09375 124.699219 506.058594 C 120.265625 505.863281 115.800781 506.101562 111.421875 504.898438 C 108.234375 504.023438 105.082031 503.105469 101.605469 501.539062 Z M 125.183594 444.804688 C 125.984375 443.105469 125.980469 443.109375 127.558594 443.902344 C 127.738281 443.992188 127.964844 443.988281 128.132812 444.085938 C 129.550781 444.894531 131.097656 444.40625 132.582031 444.519531 C 133.453125 444.582031 134.855469 443.347656 135.179688 442.5 C 135.710938 441.089844 134.910156 439.246094 136.585938 438.195312 C 136.710938 438.121094 136.695312 437.730469 136.664062 437.5 C 136.550781 436.789062 136.488281 436.078125 136.132812 435.40625 C 135.441406 434.109375 135.871094 432.628906 137.082031 431.828125 C 138.199219 431.09375 138.503906 429.960938 138.023438 428.679688 C 137.785156 428.042969 137.105469 427.761719 136.921875 427.113281 C 136.175781 424.488281 134.230469 422.746094 132.339844 420.984375 C 131.613281 420.308594 131.269531 419.679688 131.679688 418.660156 C 132.144531 417.523438 131.539062 416.824219 130.292969 416.917969 C 129.6875 416.960938 129.277344 416.726562 128.78125 416.363281 C 127.539062 415.441406 127.277344 413.8125 126.058594 412.878906 C 125.203125 412.21875 124.644531 411.414062 124.988281 410.09375 C 125.253906 409.050781 123.265625 406.957031 122.226562 406.828125 C 121.355469 406.726562 118.820312 408.007812 118.429688 408.800781 C 118.167969 409.332031 117.992188 409.460938 117.363281 409.15625 C 116.484375 408.738281 115.597656 408.136719 114.464844 408.550781 C 113.945312 408.738281 113.683594 409.242188 113.140625 409.339844 C 110.9375 409.730469 109.382812 410.96875 108.332031 412.933594 C 107.859375 413.8125 107.03125 414.542969 106.734375 415.460938 C 106.300781 416.796875 104.953125 418.457031 103.722656 418.511719 C 101.035156 418.632812 99.46875 420.660156 98.078125 422.382812 C 97.085938 423.613281 96.136719 424.960938 94.988281 426.058594 C 94.300781 426.714844 94.082031 427.21875 94.226562 428.128906 C 94.464844 429.660156 94.507812 431.222656 94.703125 432.773438 C 94.800781 433.542969 94.75 434.355469 95.304688 434.867188 C 96.292969 435.773438 97.359375 436.632812 98.503906 437.332031 C 99.960938 438.222656 101.730469 438.292969 103.300781 438.925781 C 103.867188 439.15625 104.257812 439.351562 104.601562 439.984375 C 105.414062 441.5 106.246094 443.078125 108.027344 443.777344 C 108.773438 444.066406 109.453125 444.507812 110.128906 444.964844 C 111.128906 445.644531 112.085938 446.535156 113.507812 446.265625 C 114.019531 446.167969 114.539062 446.53125 114.945312 446.847656 C 115.933594 447.613281 117.09375 448.167969 118.214844 448.527344 C 119.675781 448.992188 121.328125 448.957031 122.734375 448.035156 C 123.914062 447.257812 124.585938 446.046875 125.183594 444.804688 Z M 125.183594 444.804688 "/>
</g>
<path style=" stroke:none;fill-rule:evenodd;fill:rgb(31.759644%,71.759033%,62.348938%);fill-opacity:1;" d="M 125.183594 444.804688 C 124.585938 446.046875 123.914062 447.257812 122.734375 448.035156 C 121.328125 448.957031 119.675781 448.992188 118.214844 448.527344 C 117.09375 448.167969 115.933594 447.613281 114.945312 446.847656 C 114.539062 446.53125 114.019531 446.167969 113.507812 446.265625 C 112.085938 446.535156 111.128906 445.644531 110.128906 444.964844 C 109.453125 444.507812 108.773438 444.066406 108.027344 443.777344 C 106.25 443.078125 105.414062 441.5 104.601562 439.984375 C 104.257812 439.347656 103.867188 439.15625 103.300781 438.925781 C 101.730469 438.292969 99.960938 438.222656 98.503906 437.332031 C 97.359375 436.632812 96.296875 435.773438 95.304688 434.867188 C 94.75 434.355469 94.800781 433.542969 94.703125 432.773438 C 94.507812 431.222656 94.464844 429.660156 94.226562 428.125 C 94.085938 427.21875 94.300781 426.714844 94.988281 426.058594 C 96.136719 424.960938 97.085938 423.613281 98.078125 422.382812 C 99.46875 420.660156 101.039062 418.632812 103.722656 418.511719 C 104.953125 418.457031 106.300781 416.796875 106.734375 415.460938 C 107.035156 414.542969 107.859375 413.8125 108.332031 412.933594 C 109.382812 410.96875 110.9375 409.726562 113.140625 409.339844 C 113.683594 409.238281 113.949219 408.738281 114.464844 408.546875 C 115.601562 408.136719 116.484375 408.738281 117.363281 409.15625 C 117.992188 409.460938 118.167969 409.332031 118.429688 408.800781 C 118.820312 408.007812 121.355469 406.726562 122.226562 406.828125 C 123.265625 406.953125 125.253906 409.050781 124.988281 410.09375 C 124.644531 411.414062 125.203125 412.214844 126.058594 412.878906 C 127.28125 413.8125 127.539062 415.4375 128.78125 416.363281 C 129.277344 416.726562 129.6875 416.960938 130.292969 416.917969 C 131.539062 416.824219 132.144531 417.523438 131.683594 418.660156 C 131.269531 419.679688 131.613281 420.308594 132.339844 420.984375 C 134.230469 422.746094 136.175781 424.488281 136.925781 427.109375 C 137.105469 427.757812 137.785156 428.042969 138.023438 428.679688 C 138.503906 429.960938 138.199219 431.09375 137.082031 431.828125 C 135.871094 432.625 135.441406 434.105469 136.132812 435.40625 C 136.488281 436.078125 136.550781 436.789062 136.664062 437.5 C 136.695312 437.730469 136.710938 438.117188 136.585938 438.195312 C 134.910156 439.246094 135.710938 441.089844 135.179688 442.5 C 134.855469 443.347656 133.453125 444.582031 132.582031 444.519531 C 131.097656 444.40625 129.550781 444.890625 128.132812 444.085938 C 127.964844 443.988281 127.738281 443.992188 127.558594 443.902344 C 125.980469 443.109375 125.984375 443.105469 125.183594 444.804688 Z M 125.183594 444.804688 "/>
<path style=" stroke:none;fill-rule:evenodd;fill:rgb(31.759644%,71.759033%,62.348938%);fill-opacity:1;" d="M 270.101562 294.335938 C 270.359375 295.390625 270.074219 296.925781 270.292969 298.425781 C 270.382812 299.074219 269.996094 299.644531 269.847656 300.253906 C 269.316406 302.40625 268.71875 304.578125 267.195312 306.242188 C 265.847656 307.714844 264.394531 309.09375 262.84375 310.382812 C 259.5 313.164062 255.492188 314.738281 251.679688 316.671875 C 249.992188 317.535156 248.308594 318.417969 246.621094 319.296875 C 246.464844 319.375 246.324219 319.480469 246.15625 319.546875 C 244.664062 320.128906 244.515625 320.640625 245.816406 321.542969 C 248.34375 323.285156 250.480469 325.449219 252.753906 327.472656 C 255.9375 330.3125 258.4375 333.558594 259.863281 337.578125 C 260.96875 340.675781 261.53125 343.878906 261.21875 347.195312 C 261.179688 347.574219 260.953125 347.839844 260.847656 348.171875 C 259.738281 351.722656 257.242188 354.3125 254.824219 356.988281 C 253.023438 358.984375 250.890625 360.394531 248.515625 361.558594 C 245.957031 362.820312 243.300781 363.84375 240.488281 364.207031 C 238.285156 364.492188 236.0625 364.332031 233.847656 363.6875 C 231.585938 363.023438 229.699219 361.769531 227.851562 360.488281 C 226.082031 359.261719 224.378906 357.90625 222.902344 356.277344 C 222.117188 355.414062 221.050781 354.789062 220.160156 353.988281 C 219.171875 353.105469 218.050781 352.378906 216.988281 351.578125 C 216.078125 350.894531 215.832031 350.996094 215.464844 352.035156 C 214.75 354.054688 213.847656 356.011719 212.652344 357.773438 C 211.945312 358.824219 210.683594 359.464844 209.921875 360.542969 C 207.550781 363.886719 204.128906 365.371094 200.246094 366.078125 C 198.9375 366.316406 197.6875 366.933594 196.332031 366.886719 C 194.597656 366.828125 192.894531 367.140625 191.171875 367.21875 C 190.378906 367.253906 189.707031 366.878906 189.0625 366.421875 C 187.402344 365.246094 186.015625 363.703125 184.136719 362.824219 C 183.253906 362.414062 182.445312 361.859375 181.488281 361.566406 C 179.683594 361.015625 178.707031 359.550781 177.84375 358.003906 C 176.867188 356.238281 175.785156 354.523438 174.933594 352.707031 C 174.441406 351.667969 174.1875 350.53125 174.035156 349.320312 C 173.789062 347.363281 174.351562 345.648438 174.882812 343.917969 C 175.28125 342.636719 176.101562 341.488281 176.703125 340.265625 C 177.394531 338.847656 177.863281 337.355469 178.015625 335.78125 C 178.066406 335.203125 177.8125 334.695312 177.152344 334.660156 C 174.8125 334.523438 172.476562 334.367188 170.140625 334.265625 C 168.121094 334.171875 166.058594 333.910156 164.105469 333.21875 C 163.777344 333.101562 163.410156 332.929688 163.089844 332.980469 C 160.78125 333.328125 159.5 331.605469 158.023438 330.40625 C 156.242188 328.960938 155.164062 326.949219 154.230469 324.886719 C 152.925781 322.011719 151.984375 319.023438 151.386719 315.917969 C 151.09375 314.398438 150.949219 312.886719 150.820312 311.34375 C 150.648438 309.226562 151.75 307.597656 152.34375 305.773438 C 152.4375 305.476562 152.699219 305.207031 152.722656 304.914062 C 152.820312 303.339844 153.738281 302.0625 154.417969 300.765625 C 155.039062 299.574219 156.210938 298.617188 157.371094 297.824219 C 158.417969 297.105469 159.480469 296.433594 160.125 295.277344 C 160.398438 294.800781 160.976562 294.671875 161.378906 294.335938 C 163.03125 292.941406 165.074219 292.71875 167.078125 292.210938 C 169.828125 291.523438 172.628906 291.929688 175.371094 291.457031 C 176.945312 291.179688 177.144531 290.980469 176.722656 289.410156 C 176.207031 287.484375 175.414062 285.558594 175.332031 283.605469 C 175.242188 281.4375 174.992188 279.191406 176.003906 277.023438 C 176.589844 275.765625 177.585938 274.695312 177.882812 273.359375 C 178.40625 270.996094 180.601562 270.066406 181.878906 268.367188 C 182.335938 267.757812 183.136719 267.796875 183.75 267.46875 C 184.890625 266.851562 185.867188 265.972656 187.132812 265.539062 C 187.6875 265.347656 187.933594 264.640625 188.589844 264.308594 C 189.863281 263.65625 191.183594 263.753906 192.40625 263.878906 C 194.457031 264.09375 196.550781 264.113281 198.542969 264.808594 C 199.15625 265.019531 199.828125 265.121094 200.515625 265.074219 C 201.507812 265.007812 202.335938 265.609375 203.152344 266.035156 C 204.378906 266.675781 205.597656 267.34375 206.621094 268.351562 C 207.671875 269.382812 208.832031 270.304688 210.191406 270.964844 C 210.765625 271.238281 211.207031 271.816406 211.652344 272.3125 C 213.460938 274.320312 215.566406 276.148438 216.957031 278.417969 C 218.40625 280.789062 220.527344 282.714844 221.511719 285.390625 C 221.808594 286.1875 222.257812 286.175781 222.699219 285.496094 C 224.199219 283.179688 226.027344 281.148438 228.105469 279.34375 C 228.90625 278.648438 229.636719 277.902344 230.222656 277.015625 C 230.773438 276.179688 231.628906 275.574219 232.375 275.046875 C 233.488281 274.257812 234.332031 273.25 235.320312 272.367188 C 236.042969 271.722656 236.902344 271.175781 237.714844 270.753906 C 240.113281 269.523438 242.453125 268.144531 245.035156 267.308594 C 247.691406 266.453125 250.335938 266.34375 252.976562 267.320312 C 254.058594 267.71875 255.375 267.660156 256.207031 268.5 C 257.914062 270.207031 259.964844 271.527344 261.515625 273.390625 C 261.988281 273.960938 262.566406 274.464844 262.917969 275.101562 C 264.800781 278.488281 267.011719 281.699219 268.117188 285.503906 C 268.917969 288.273438 269.675781 291.03125 270.101562 294.335938 Z M 217.152344 302.6875 C 215.527344 302.871094 215.527344 302.871094 215.398438 301.335938 C 215.382812 301.164062 215.277344 301 215.273438 300.828125 C 215.222656 299.402344 214.160156 298.472656 213.5625 297.320312 C 213.21875 296.640625 211.65625 296.164062 210.878906 296.3125 C 209.585938 296.558594 208.578125 297.996094 207.035156 297.230469 C 206.921875 297.171875 206.636719 297.359375 206.480469 297.492188 C 206.003906 297.894531 205.5 298.265625 205.167969 298.839844 C 204.519531 299.945312 203.222656 300.300781 202.070312 299.765625 C 201.015625 299.269531 200.035156 299.558594 199.300781 300.503906 C 198.941406 300.96875 199.035156 301.605469 198.636719 302.039062 C 197.027344 303.789062 196.617188 306.027344 196.171875 308.238281 C 196.003906 309.089844 195.695312 309.632812 194.75 309.789062 C 193.691406 309.964844 193.445312 310.734375 194.085938 311.621094 C 194.394531 312.046875 194.410156 312.460938 194.363281 312.992188 C 194.242188 314.339844 193.152344 315.273438 193.007812 316.609375 C 192.910156 317.546875 192.566406 318.328125 191.429688 318.679688 C 190.53125 318.953125 189.882812 321.390625 190.265625 322.222656 C 190.582031 322.914062 192.691406 324.210938 193.460938 324.144531 C 193.972656 324.09375 194.152344 324.164062 194.210938 324.773438 C 194.304688 325.617188 194.257812 326.550781 195.078125 327.203125 C 195.460938 327.503906 195.957031 327.46875 196.277344 327.832031 C 197.574219 329.289062 199.199219 329.882812 201.144531 329.765625 C 202.011719 329.714844 202.933594 329.996094 203.753906 329.804688 C 204.941406 329.515625 206.789062 329.761719 207.390625 330.644531 C 208.707031 332.589844 210.933594 332.828125 212.84375 333.078125 C 214.214844 333.253906 215.652344 333.347656 216.992188 333.703125 C 217.792969 333.910156 218.265625 333.839844 218.875 333.324219 C 219.910156 332.441406 221.050781 331.699219 222.109375 330.84375 C 222.640625 330.421875 223.269531 330.089844 223.398438 329.445312 C 223.621094 328.292969 223.773438 327.109375 223.769531 325.941406 C 223.765625 324.453125 223.011719 323.105469 222.769531 321.644531 C 222.679688 321.121094 222.644531 320.738281 222.960938 320.195312 C 223.714844 318.902344 224.511719 317.5625 224.21875 315.917969 C 224.09375 315.226562 224.113281 314.527344 224.144531 313.8125 C 224.191406 312.757812 224.414062 311.640625 223.5625 310.707031 C 223.261719 310.371094 223.292969 309.820312 223.34375 309.375 C 223.460938 308.289062 223.34375 307.175781 223.097656 306.175781 C 222.777344 304.875 221.996094 303.664062 220.671875 303.039062 C 219.558594 302.515625 218.347656 302.570312 217.152344 302.6875 Z M 217.152344 302.6875 "/>
<path style=" stroke:none;fill-rule:evenodd;fill:rgb(1.959229%,52.159119%,52.549744%);fill-opacity:1;" d="M 217.152344 302.6875 C 218.347656 302.570312 219.558594 302.515625 220.671875 303.039062 C 221.996094 303.664062 222.78125 304.875 223.097656 306.175781 C 223.34375 307.175781 223.460938 308.289062 223.34375 309.375 C 223.292969 309.820312 223.261719 310.371094 223.566406 310.707031 C 224.414062 311.640625 224.191406 312.753906 224.144531 313.8125 C 224.113281 314.523438 224.09375 315.226562 224.21875 315.917969 C 224.511719 317.558594 223.714844 318.902344 222.960938 320.195312 C 222.644531 320.738281 222.679688 321.121094 222.769531 321.644531 C 223.011719 323.101562 223.765625 324.453125 223.769531 325.9375 C 223.773438 327.109375 223.621094 328.292969 223.398438 329.445312 C 223.269531 330.089844 222.640625 330.421875 222.109375 330.84375 C 221.050781 331.699219 219.910156 332.441406 218.875 333.324219 C 218.265625 333.839844 217.792969 333.910156 216.992188 333.703125 C 215.652344 333.347656 214.21875 333.253906 212.84375 333.078125 C 210.933594 332.828125 208.707031 332.589844 207.390625 330.644531 C 206.792969 329.761719 204.945312 329.515625 203.753906 329.800781 C 202.933594 329.996094 202.015625 329.714844 201.148438 329.765625 C 199.199219 329.882812 197.574219 329.289062 196.277344 327.832031 C 195.957031 327.46875 195.460938 327.503906 195.082031 327.203125 C 194.257812 326.550781 194.304688 325.617188 194.214844 324.773438 C 194.152344 324.164062 193.972656 324.09375 193.460938 324.144531 C 192.691406 324.210938 190.582031 322.914062 190.265625 322.21875 C 189.882812 321.386719 190.535156 318.953125 191.429688 318.675781 C 192.566406 318.328125 192.910156 317.546875 193.007812 316.609375 C 193.152344 315.273438 194.246094 314.339844 194.363281 312.992188 C 194.410156 312.460938 194.394531 312.046875 194.085938 311.617188 C 193.449219 310.734375 193.691406 309.964844 194.75 309.789062 C 195.695312 309.628906 196.003906 309.089844 196.171875 308.238281 C 196.621094 306.027344 197.027344 303.789062 198.636719 302.039062 C 199.035156 301.605469 198.941406 300.96875 199.300781 300.5 C 200.035156 299.558594 201.019531 299.269531 202.070312 299.761719 C 203.222656 300.296875 204.519531 299.945312 205.167969 298.839844 C 205.5 298.265625 206.003906 297.894531 206.480469 297.492188 C 206.636719 297.359375 206.921875 297.171875 207.035156 297.226562 C 208.578125 297.996094 209.585938 296.558594 210.878906 296.3125 C 211.65625 296.164062 213.21875 296.640625 213.5625 297.320312 C 214.160156 298.472656 215.226562 299.402344 215.277344 300.828125 C 215.277344 300.996094 215.382812 301.164062 215.398438 301.332031 C 215.527344 302.871094 215.527344 302.871094 217.152344 302.6875 Z M 217.152344 302.6875 "/>
</g>
</svg>
